plyformat ascii 1.0element vertex 112property double xproperty double yelement face 55property list uchar int vertex_indicesend_header2 21 32 33 23 115 115 318 318 219 120 120 219 223 223 123 824 724 823 1015 1518 1819 1519 1818 1915 193 151 153 182 182 231 233 4815 4819 4820 4824 4824 4723 4623 4719 4720 4615 473 471 471 352 352 343 341 313 313 301 303 272 271 262 2615 3115 3518 3518 3419 3119 3431 3131 3534 3434 3535 3435 3147 3147 3547 4735 4731 4729 4629 4730 4726 4626 4830 4831 4835 4847 4848 4748 3548 3148 348 1548 1947 1947 1534 1931 1931 1534 1835 1835 1526 1026 726 326 129 330 229 230 131 131 334 334 235 135 247 347 13 6 2 3 3 3 2 0 4 5 6 3 4 4 10 11 12 9 3 12 7 8 8 7 15 18 21 19 25 2 6 4 2 25 26 1 3 29 28 27 4 42 41 32 31 4 39 40 34 33 3 38 37 36 4 45 42 43 44 3 47 45 46 6 50 52 56 57 47 49 4 50 49 48 51 3 66 65 64 7 7 12 11 13 98 16 15 4 30 29 55 54 3 55 52 53 8 72 75 73 63 65 69 70 71 3 75 74 73 3 76 36 37 4 36 76 77 35 4 75 72 79 78 4 71 70 81 80 4 70 69 83 82 4 84 68 88 87 4 58 37 40 57 4 99 98 13 14 3 101 100 102 4 104 105 101 103 7 62 60 91 90 88 68 67 3 105 100 101 3 110 106 109 4 111 110 109 108 3 109 106 107 4 86 89 110 85 10 97 98 100 105 106 110 89 95 92 96 4 23 60 56 24 3 17 15 16 3 94 90 93 3 97 16 98 3 61 37 58 3 94 88 90 4 89 88 94 95 7 40 39 41 42 45 47 57 7 52 55 29 27 19 24 56 7 63 73 76 37 61 60 62 3 61 58 59 3 66 69 65 4 68 69 66 67 3 19 27 25 3 23 22 60 3 23 20 22 7 21 18 96 92 91 60 22 