ply
format ascii 1.0
element vertex 230
property double x
property double y
element face 98
property list uchar int vertex_indices
end_header
1 1
1 6
5 6
9 1
10 1
10 6
9 7
5 7
1 7
1 13
1 14
1 18
1 19
17 16
17 21
17 18
18 19
18 21
18 16
18 14
18 13
22 7
18 11
17 11
17 7
18 6
22 1
23 1
26 6
23 7
26 7
32 6
31 6
31 1
32 1
37 6
40 1
41 1
41 7
40 7
37 7
18 39
18 41
17 42
12 39
12 38
17 39
17 33
18 28
18 26
17 25
17 28
17 32
1 25
1 26
1 32
1 33
9 38
10 39
10 41
9 41
1 41
1 42
1 85
31 85
32 85
42 78
42 79
26 78
26 79
31 78
32 79
18 77
17 77
1 79
1 78
1 72
1 71
17 72
17 71
18 62
18 60
17 59
17 62
1 60
1 59
11 49
10 49
1 50
1 49
10 46
11 47
17 47
13 46
13 47
17 52
18 49
18 50
18 52
18 47
48 46
47 48
48 48
48 45
47 50
48 50
48 54
47 55
47 59
48 59
69 55
68 55
68 65
69 65
72 70
72 71
75 66
75 65
82 65
82 66
81 71
81 70
71 78
71 79
66 79
58 78
58 79
65 78
61 70
61 66
60 66
56 70
56 71
60 70
52 71
52 70
48 65
48 66
48 70
47 71
47 78
48 79
47 85
48 85
65 85
66 85
87 85
87 71
87 70
87 66
87 65
87 55
87 54
87 46
87 45
87 1
87 3
87 4
87 12
87 13
87 20
87 21
87 28
87 29
87 36
87 37
47 40
48 40
48 36
47 37
48 31
47 31
48 28
47 29
48 23
47 23
48 20
47 21
47 16
48 16
48 12
47 13
45 7
47 8
48 8
45 6
58 1
59 1
59 5
58 5
73 1
74 1
74 4
76 6
73 4
76 7
67 7
66 7
66 12
67 12
82 3
82 4
38 21
37 21
38 18
37 19
26 18
27 19
27 29
27 28
38 24
37 24
37 28
37 29
26 39
27 39
38 65
37 64
27 64
26 65
26 44
27 44
27 53
27 52
37 57
38 57
38 61
37 61
37 52
37 53
4 0 3 2 1 
4 11 10 13 15 
4 14 12 16 17 
5 9 7 6 23 20 
4 4 26 25 5 
3 9 8 7 
4 53 12 14 50 
4 13 10 19 18 
4 29 27 28 30 
3 23 22 20 
4 25 26 21 22 
3 24 23 6 
4 28 27 33 32 
4 39 40 35 36 
4 34 36 35 31 
4 174 161 162 172 
4 69 68 70 64 
4 42 44 46 41 
4 45 47 46 44 
4 44 42 59 58 
4 49 48 51 54 
4 68 75 73 72 
4 90 62 43 93 
4 61 56 57 60 
4 85 88 95 82 
4 69 64 63 74 
4 67 142 65 71 
4 73 75 76 78 
4 83 84 81 80 
4 77 84 83 79 
3 227 225 226 
4 167 165 154 103 
4 89 62 90 87 
4 55 54 51 52 
4 47 45 57 56 
4 92 94 93 43 
4 92 99 96 94 
4 94 96 86 91 
4 95 88 97 98 
4 215 228 221 214 
4 101 102 105 104 
4 127 144 126 125 
5 121 115 114 116 119 
4 107 111 109 108 
3 227 217 218 
4 110 151 117 113 
4 119 116 117 118 
3 121 120 115 
3 151 118 117 
5 122 115 120 146 123 
4 123 146 145 124 
4 140 142 67 66 
3 130 131 135 
4 129 116 114 128 
4 135 131 132 134 
3 133 131 130 
4 137 130 135 138 
6 68 72 219 216 66 70 
4 126 144 143 141 
3 147 146 120 
4 148 121 119 149 
3 151 150 118 
4 169 165 167 166 
3 105 102 153 
3 102 100 153 
4 105 153 152 106 
4 179 159 160 176 
4 170 163 164 168 
4 213 228 215 208 
4 209 207 211 212 
4 173 163 170 171 
25 182 183 181 178 177 175 173 171 169 166 101 104 107 108 139 140 66 216 226 225 210 202 204 39 38 
4 184 197 198 180 
4 195 158 199 196 
4 177 161 174 175 
4 181 159 179 178 
3 201 157 158 
4 194 188 187 190 
4 38 37 185 182 
4 186 189 185 37 
5 194 192 193 185 188 
5 193 192 191 200 201 
24 22 21 29 30 206 214 220 219 72 80 81 98 97 96 99 42 41 48 49 17 16 18 19 20 
3 185 189 188 
4 182 197 184 183 
4 200 191 155 156 
4 201 158 195 193 
3 207 205 203 
3 211 207 203 
4 211 203 202 210 
3 221 220 214 
3 228 223 221 
4 109 111 112 136 
4 227 218 224 225 
4 224 218 222 229 
4 6 7 2 3 
5 40 39 204 206 30 
8 140 139 134 132 115 122 127 125 
