<?xml version="1.0" encoding="UTF-8" standalone="no"?>

<svg
   xmlns="http://www.w3.org/2000/svg"
   xmlns:xlink="http://www.w3.org/1999/xlink"
   width="1955"
   height="1794.5"
   version="1.1">
    <g>
    <a xlink:href="https://www.facebook.com/">
    <path
       style="fill:#b3b3b3;stroke:none"
       d="m 739,825.36218 146,12 107,10 120,13 15,-15 12,-3 10,3 21,-1 7,5 6,2 11,2 7,5 5,4 7,8 1,10 7,2 8,-4 5,-9 9,5 11,0 4,-10 -1,-9 24,-11 11,3 10,5 24,-5 -1,26 -13,24 -11,31 -13,29 0,18 -9,21 -11,24.00002 -10,12 -8,12 -5,14 -36,23 -28,33 -9,22 -11,20 -9,30 -13,13 -18,19 -10,25 -8,24 -6,36 -5,6 -66,-43 1,-15 -4,-10 0,-17 -18,-8 -21,3 -19,-4 -23,-1 -27,-9 -17,-7 -15,3 -1,6 1,6 -3,1 -7,-4 -11,-18 -12,-13 -16,-9 -5,-9 -7,-8 4,-17 -10,-4.5 -18.5,-6 -8.5,6.5 -7,-16 -1,-9 -19,-13 -9,-3 -9,5 -21,-8 z"/>
    </a>
    <a xlink:href="https://www.google.com/">
    <path
       style="fill:#b3b3b3;stroke:#ffffff;stroke-width:6;stroke-linecap:butt;stroke-linejoin:miter;stroke-miterlimit:4;stroke-opacity:1;stroke-dasharray:none"
       d="m 1057,1200.3622 9,-14 12,0 4,11 -9,11 -5,20 -9,-10 -3,-10 z"
    />
    </a>
    <a xlink:href="https://www.bing.com/">
    <path
       style="fill:#b3b3b3;stroke:none"
       d="m 721,1096.3622 -12,215 24,17 12,-8 17,7 26,14 22,16 43,-20 9,-8 13,-19 6,11 -6,14 -2,6 24,14 14,9 4,7 38,-8 31,-28 27,-9 34,-1 31,2 12,-12 -68,-45 -3,-8 3,-12 -4,-4 -2,-16 -9,-3 -12,-2 -9,4 -13,-4 -9,-4 -12,5 -9,-4 -29,-10 -10,-4 -12,0 -2,11 -6,3 -9.5,-1 -9.5,-15 -8,-14 -15,-12 -14,-5 -7.5,-13.5 -1,-14.5 -3,-10 -10,-3 -8.5,-2 -8,7 -8,-12 -5,-7 0,-9 -17,-10 -9,3 -11,-2 z"/>
    </a>
    </g>
</svg>
